<svg xmlns="http://www.w3.org/2000/svg" viewBox="0 0 200 200">
  <rect width="200" height="200" rx="20" fill="#1a2a3a"/>
  <g transform="translate(60, 60) scale(2.5)">
    <circle cx="32" cy="34" r="13" fill="#facc15"/>
    <line x1="32" y1="16" x2="32" y2="12" stroke="#facc15" stroke-width="2.5" stroke-linecap="round"/>
    <line x1="32" y1="52" x2="32" y2="56" stroke="#facc15" stroke-width="2.5" stroke-linecap="round"/>
    <line x1="14" y1="34" x2="10" y2="34" stroke="#facc15" stroke-width="2.5" stroke-linecap="round"/>
    <line x1="50" y1="34" x2="54" y2="34" stroke="#facc15" stroke-width="2.5" stroke-linecap="round"/>
    <line x1="19" y1="19" x2="16" y2="16" stroke="#facc15" stroke-width="2.5" stroke-linecap="round"/>
    <line x1="45" y1="49" x2="48" y2="52" stroke="#facc15" stroke-width="2.5" stroke-linecap="round"/>
    <line x1="45" y1="19" x2="48" y2="16" stroke="#facc15" stroke-width="2.5" stroke-linecap="round"/>
    <line x1="19" y1="49" x2="16" y2="52" stroke="#facc15" stroke-width="2.5" stroke-linecap="round"/>
    <ellipse cx="46" cy="46" rx="16" ry="11" fill="#7dd3fc"/>
    <ellipse cx="58" cy="43" rx="12" ry="9" fill="#7dd3fc"/>
    <ellipse cx="36" cy="49" rx="11" ry="8" fill="#7dd3fc"/>
    <rect x="26" y="49" width="42" height="10" rx="5" fill="#7dd3fc"/>
    <line x1="36" y1="62" x2="33" y2="70" stroke="#38bdf8" stroke-width="2" stroke-linecap="round"/>
    <line x1="47" y1="62" x2="44" y2="70" stroke="#38bdf8" stroke-width="2" stroke-linecap="round"/>
    <line x1="58" y1="62" x2="55" y2="70" stroke="#38bdf8" stroke-width="2" stroke-linecap="round"/>
  </g>
</svg>
