<svg xmlns="http://www.w3.org/2000/svg" viewBox="0 0 200 200">
  <rect width="200" height="200" rx="20" fill="#1a2a3a"/>
  <g fill="none" stroke-linecap="round" stroke-linejoin="round">
    <!-- 태양 -->
    <circle cx="80" cy="75" r="28" fill="#facc15"/>
    <line x1="80" y1="32" x2="80" y2="20" stroke="#facc15" stroke-width="6"/>
    <line x1="80" y1="118" x2="80" y2="130" stroke="#facc15" stroke-width="6"/>
    <line x1="37" y1="75" x2="25" y2="75" stroke="#facc15" stroke-width="6"/>
    <line x1="123" y1="75" x2="135" y2="75" stroke="#facc15" stroke-width="6"/>
    <line x1="49" y1="44" x2="41" y2="36" stroke="#facc15" stroke-width="6"/>
    <line x1="111" y1="106" x2="119" y2="114" stroke="#facc15" stroke-width="6"/>
    <line x1="111" y1="44" x2="119" y2="36" stroke="#facc15" stroke-width="6"/>
    <line x1="49" y1="106" x2="41" y2="114" stroke="#facc15" stroke-width="6"/>
    <!-- 구름 -->
    <ellipse cx="120" cy="115" rx="38" ry="26" fill="#7dd3fc"/>
    <ellipse cx="150" cy="108" rx="28" ry="20" fill="#7dd3fc"/>
    <ellipse cx="95" cy="120" rx="26" ry="19" fill="#7dd3fc"/>
    <rect x="70" y="118" width="100" height="24" rx="12" fill="#7dd3fc"/>
    <!-- 빗방울 -->
    <line x1="90" y1="150" x2="82" y2="172" stroke="#38bdf8" stroke-width="5"/>
    <line x1="118" y1="150" x2="110" y2="172" stroke="#38bdf8" stroke-width="5"/>
    <line x1="146" y1="150" x2="138" y2="172" stroke="#38bdf8" stroke-width="5"/>
  </g>
</svg>
